<svg width="20" height="17" viewBox="0 0 20 17" fill="none" xmlns="http://www.w3.org/2000/svg">
<path d="M13.1133 8.50456C13.1133 10.2991 11.6631 11.7493 9.86858 11.7493C8.07402 11.7493 6.62391 10.2991 6.62391 8.50456C6.62391 6.71 8.07402 5.25989 9.86858 5.25989C11.6631 5.25989 13.1133 6.71 13.1133 8.50456Z" stroke="#EAEAEA" stroke-width="1.2" stroke-linecap="round" stroke-linejoin="round"/>
<path d="M9.86859 16C13.068 16 16.0499 14.1148 18.1254 10.852C18.9411 9.57403 18.9411 7.426 18.1254 6.14803C16.0499 2.88519 13.068 1 9.86859 1C6.66917 1 3.68731 2.88519 1.61178 6.14803C0.796073 7.426 0.796073 9.57403 1.61178 10.852C3.68731 14.1148 6.66917 16 9.86859 16Z" stroke="#EAEAEA" stroke-width="1.2" stroke-linecap="round" stroke-linejoin="round"/>
</svg>
